<?xml version="1.0" encoding="utf-8"?>
<svg viewBox="0 0 500 500" xmlns="http://www.w3.org/2000/svg">
  <defs>
    <clipPath id="cc2cf0c727">
      <path d="M 190.417969 92.515625 L 293.066406 92.515625 L 293.066406 282.25 L 190.417969 282.25 Z M 190.417969 92.515625 " clip-rule="nonzero"/>
    </clipPath>
    <clipPath id="7b15b70cf6">
      <path d="M 81.578125 92.515625 L 184.425781 92.515625 L 184.425781 282.25 L 81.578125 282.25 Z M 81.578125 92.515625 " clip-rule="nonzero"/>
    </clipPath>
    <clipPath id="41fdc8ed98">
      <path d="M 153.09375 152.257812 L 221.796875 152.257812 L 221.796875 216.632812 L 153.09375 216.632812 Z M 153.09375 152.257812 " clip-rule="nonzero"/>
    </clipPath>
  </defs>
  <g clip-path="url(#cc2cf0c727)" transform="matrix(2.253575, 0, 0, 2.253575, -172.903763, -167.062744)" style="">
    <path fill="#c89a63" d="M 293.066406 92.515625 L 238.1875 92.515625 C 211.824219 92.515625 190.449219 106.261719 190.449219 132.636719 L 190.449219 141.925781 C 193.957031 128.957031 207.738281 124.855469 220.480469 124.855469 L 259.5625 124.855469 L 259.5625 232.839844 L 238.1875 232.839844 C 211.824219 232.839844 190.449219 246.589844 190.449219 272.964844 L 190.449219 282.25 C 193.957031 269.28125 207.738281 265.183594 220.480469 265.183594 L 293.066406 265.183594 L 293.066406 92.515625 " fill-opacity="1" fill-rule="nonzero"/>
  </g>
  <g clip-path="url(#7b15b70cf6)" transform="matrix(2.253575, 0, 0, 2.253575, -172.903763, -167.062744)" style="">
    <path fill="#163470" d="M 81.578125 92.515625 L 136.457031 92.515625 C 162.820312 92.515625 184.191406 106.261719 184.191406 132.636719 L 184.191406 141.925781 C 180.6875 128.957031 166.90625 124.855469 154.164062 124.855469 L 115.078125 124.855469 L 115.078125 232.839844 L 136.457031 232.839844 C 162.820312 232.839844 184.191406 246.589844 184.191406 272.964844 L 184.191406 282.25 C 180.6875 269.28125 166.90625 265.183594 154.164062 265.183594 L 81.578125 265.183594 L 81.578125 92.515625 " fill-opacity="1" fill-rule="nonzero"/>
  </g>
  <g clip-path="url(#41fdc8ed98)" transform="matrix(2.253575, 0, 0, 2.253575, -172.903763, -167.062744)" style="">
    <path fill="#163470" d="M 188.957031 153.453125 L 195.710938 174.710938 C 195.871094 175.195312 196.304688 175.46875 196.789062 175.46875 L 220.664062 175.304688 C 221.742188 175.304688 222.175781 176.65625 221.3125 177.304688 L 201.867188 191.207031 C 201.488281 191.476562 201.328125 192.019531 201.488281 192.453125 L 209.050781 215.117188 C 209.375 216.144531 208.242188 217.011719 207.375 216.359375 L 188.363281 202.460938 C 187.769531 202.027344 187.066406 202.027344 186.472656 202.460938 L 167.515625 216.414062 C 166.652344 217.0625 165.460938 216.199219 165.839844 215.171875 L 173.402344 192.507812 C 173.566406 192.074219 173.402344 191.53125 173.023438 191.261719 L 153.578125 177.359375 C 152.714844 176.710938 153.148438 175.359375 154.226562 175.359375 L 178.101562 175.519531 C 178.585938 175.519531 179.019531 175.195312 179.183594 174.765625 L 185.878906 153.453125 C 186.417969 151.882812 188.472656 151.882812 188.957031 153.453125 Z M 188.957031 153.453125 " fill-opacity="1" fill-rule="nonzero"/>
  </g>
</svg>